<?xml version="1.0" encoding="UTF-8" standalone="no"?>
<!-- Created with Inkscape (http://www.inkscape.org/) -->

<svg
   width="210mm"
   height="297mm"
   viewBox="0 0 210 297"
   version="1.1"
   id="svg5"
   inkscape:version="1.2.1 (9c6d41e410, 2022-07-14)"
   sodipodi:docname="ПЧ.svg"
   xmlns:inkscape="http://www.inkscape.org/namespaces/inkscape"
   xmlns:sodipodi="http://sodipodi.sourceforge.net/DTD/sodipodi-0.dtd"
   xmlns="http://www.w3.org/2000/svg"
   xmlns:svg="http://www.w3.org/2000/svg">
  <sodipodi:namedview
     id="namedview7"
     pagecolor="#ffffff"
     bordercolor="#000000"
     borderopacity="0.25"
     inkscape:showpageshadow="2"
     inkscape:pageopacity="0.0"
     inkscape:pagecheckerboard="0"
     inkscape:deskcolor="#d1d1d1"
     inkscape:document-units="mm"
     showgrid="false"
     inkscape:zoom="0.59634507"
     inkscape:cx="386.52118"
     inkscape:cy="72.105903"
     inkscape:window-width="1920"
     inkscape:window-height="1017"
     inkscape:window-x="-8"
     inkscape:window-y="-8"
     inkscape:window-maximized="1"
     inkscape:current-layer="layer1"
     showguides="true" />
  <defs
     id="defs2">
    <inkscape:path-effect
       effect="spiro"
       id="path-effect571"
       is_visible="true"
       lpeversion="1" />
    <inkscape:path-effect
       effect="spiro"
       id="path-effect571-1"
       is_visible="true"
       lpeversion="1" />
    <inkscape:path-effect
       effect="spiro"
       id="path-effect571-1-1"
       is_visible="true"
       lpeversion="1" />
  </defs>
  <g
     inkscape:label="Слой 1"
     inkscape:groupmode="layer"
     id="layer1">
    <path
       style="fill:none;fill-opacity:1;stroke:#1f2607;stroke-width:2.217;stroke-linecap:round;stroke-linejoin:round;stroke-dasharray:none;stroke-opacity:1"
       d="m 67,98.349338 -2e-6,-32.356685"
       id="path8542"
       sodipodi:nodetypes="cc" />
    <path
       style="fill:none;fill-opacity:1;stroke:#1f2607;stroke-width:2.217;stroke-linecap:round;stroke-linejoin:round;stroke-dasharray:none;stroke-opacity:1"
       d="M 67,0 V 21"
       id="path8544"
       sodipodi:nodetypes="cc" />
    <rect
       style="fill:none;stroke:#1f2607;stroke-width:2.31058;stroke-linecap:round;stroke-linejoin:round;stroke-dashoffset:19.2756"
       id="rect298"
       width="44.992653"
       height="44.992653"
       x="44.503674"
       y="21" />
    <path
       style="fill:none;stroke:#1f2607;stroke-width:1.8;stroke-linecap:round;stroke-linejoin:round;stroke-dashoffset:19.2756"
       d="M 44.503673,65.992652 89.496322,21"
       id="path513" />
    <path
       style="fill:none;stroke:#1f2607;stroke-width:1.8;stroke-linecap:round;stroke-linejoin:round;stroke-dashoffset:19.2756"
       d="m 72.015287,29.698249 c -0.322084,1.317829 -1.197039,2.491194 -2.368196,3.175886 -1.171157,0.684692 -2.62285,0.871552 -3.929224,0.505765 -0.841415,-0.235598 -1.610975,-0.686389 -2.295364,-1.229616 -0.68439,-0.543227 -1.289265,-1.178949 -1.878026,-1.824584 -0.88009,-0.965106 -1.736259,-1.963707 -2.761109,-2.773441 -1.02485,-0.809734 -2.248483,-1.428891 -3.552621,-1.501069 -1.199211,-0.06637 -2.418336,0.351645 -3.324507,1.139912 -0.906171,0.788268 -1.489,1.937752 -1.589353,3.134598"
       id="path569-5"
       inkscape:path-effect="#path-effect571-1"
       inkscape:original-d="m 72.015287,29.698249 c -1.97317,-2.7e-4 -4.32478,3.681391 -6.29742,3.681651 -1.97264,2.7e-4 -2.25106,-3.05447 -4.17339,-3.0542 -1.92232,2.6e-4 -4.76122,-4.25774 -6.31373,-4.27451 -2.78652,-0.0301 -3.73099,4.27424 -4.91386,4.27451"
       sodipodi:nodetypes="csssc" />
    <g
       id="g632"
       transform="rotate(90,72.939393,50.611949)">
      <path
         style="fill:none;stroke:#1f2607;stroke-width:1.8;stroke-linecap:round;stroke-linejoin:round;stroke-dashoffset:19.2756"
         d="m 78.795337,38.547063 c 1.317829,0.322084 2.491194,1.197039 3.175886,2.368196 0.684692,1.171157 0.871552,2.62285 0.505765,3.929224 -0.235598,0.841415 -0.686389,1.610975 -1.229616,2.295364 -0.543227,0.68439 -1.178949,1.289265 -1.824584,1.878026 -0.965106,0.88009 -1.963707,1.736259 -2.773441,2.761109 -0.809734,1.02485 -1.428891,2.248483 -1.501069,3.552621 -0.06637,1.199211 0.351645,2.418336 1.139912,3.324507 0.788268,0.906171 1.937752,1.489 3.134598,1.589353"
         id="path569-5-6"
         inkscape:path-effect="#path-effect571-1-1"
         inkscape:original-d="m 78.795337,38.547063 c -2.7e-4,1.97317 3.681391,4.32478 3.681651,6.29742 2.7e-4,1.97264 -3.05447,2.25106 -3.0542,4.17339 2.6e-4,1.92232 -4.25774,4.76122 -4.27451,6.31373 -0.0301,2.78652 4.27424,3.73099 4.27451,4.91386"
         sodipodi:nodetypes="csssc" />
      <path
         style="fill:none;stroke:#1f2607;stroke-width:1.8;stroke-linecap:round;stroke-linejoin:round;stroke-dashoffset:19.2756"
         d="M 81.989599,51.608537 75.574603,47.490612"
         id="path625"
         sodipodi:nodetypes="cc" />
      <path
         style="fill:none;stroke:#1f2607;stroke-width:1.8;stroke-linecap:round;stroke-linejoin:round;stroke-dashoffset:19.2756"
         d="m 73.022102,49.813315 3.826695,-5.416989"
         id="path627" />
    </g>
  </g>
</svg>
